<mxfile host="app.diagrams.net" agent="Mozilla/5.0 (Windows NT 10.0; Win64; x64) AppleWebKit/537.36 (KHTML, like Gecko) Chrome/131.0.0.0 Safari/537.36" version="24.8.3">
  <diagram name="PÃ¡gina-1" id="fsYyTsLvQT4wnIQunbyP">
    <mxGraphModel dx="2625" dy="1393" grid="1" gridSize="10" guides="1" tooltips="1" connect="1" arrows="1" fold="1" page="1" pageScale="1" pageWidth="2000" pageHeight="1920" math="0" shadow="0">
      <root>
        <mxCell id="0" />
        <mxCell id="1" parent="0" />
        <mxCell id="XZGx1vhHaTcRCYBM8X0p-1" value="" style="rounded=0;whiteSpace=wrap;html=1;" vertex="1" parent="1">
          <mxGeometry x="90" y="60" width="570" height="830" as="geometry" />
        </mxCell>
        <mxCell id="XZGx1vhHaTcRCYBM8X0p-2" value="Home" style="text;html=1;align=center;verticalAlign=middle;whiteSpace=wrap;rounded=0;fontSize=20;" vertex="1" parent="1">
          <mxGeometry x="90" y="10" width="570" height="40" as="geometry" />
        </mxCell>
        <mxCell id="XZGx1vhHaTcRCYBM8X0p-3" value="" style="rounded=0;whiteSpace=wrap;html=1;fillColor=#a0522d;fontColor=#ffffff;strokeColor=#6D1F00;" vertex="1" parent="1">
          <mxGeometry x="120" y="150" width="510" height="710" as="geometry" />
        </mxCell>
        <mxCell id="XZGx1vhHaTcRCYBM8X0p-4" value="Nav bar" style="rounded=0;whiteSpace=wrap;html=1;fillColor=#76608a;fontColor=#ffffff;strokeColor=#432D57;" vertex="1" parent="1">
          <mxGeometry x="120" y="80" width="510" height="60" as="geometry" />
        </mxCell>
        <mxCell id="XZGx1vhHaTcRCYBM8X0p-15" value="" style="group" vertex="1" connectable="0" parent="1">
          <mxGeometry x="220" y="250" width="310" height="270" as="geometry" />
        </mxCell>
        <mxCell id="XZGx1vhHaTcRCYBM8X0p-5" value="photo 1" style="rounded=0;whiteSpace=wrap;html=1;fillColor=#cce5ff;strokeColor=#36393d;" vertex="1" parent="XZGx1vhHaTcRCYBM8X0p-15">
          <mxGeometry width="310" height="270" as="geometry" />
        </mxCell>
        <mxCell id="XZGx1vhHaTcRCYBM8X0p-14" value="" style="group" vertex="1" connectable="0" parent="XZGx1vhHaTcRCYBM8X0p-15">
          <mxGeometry y="230" width="310" height="40" as="geometry" />
        </mxCell>
        <mxCell id="XZGx1vhHaTcRCYBM8X0p-6" value="@author" style="rounded=0;whiteSpace=wrap;html=1;" vertex="1" parent="XZGx1vhHaTcRCYBM8X0p-14">
          <mxGeometry x="170" width="140" height="40" as="geometry" />
        </mxCell>
        <mxCell id="XZGx1vhHaTcRCYBM8X0p-13" value="" style="group" vertex="1" connectable="0" parent="XZGx1vhHaTcRCYBM8X0p-14">
          <mxGeometry width="170" height="40" as="geometry" />
        </mxCell>
        <mxCell id="XZGx1vhHaTcRCYBM8X0p-7" value="1,250 likes" style="rounded=0;whiteSpace=wrap;html=1;" vertex="1" parent="XZGx1vhHaTcRCYBM8X0p-13">
          <mxGeometry width="170" height="40" as="geometry" />
        </mxCell>
        <mxCell id="XZGx1vhHaTcRCYBM8X0p-9" value="" style="verticalLabelPosition=bottom;verticalAlign=top;html=1;shape=mxgraph.basic.star;fillColor=#76608a;fontColor=#ffffff;strokeColor=#432D57;" vertex="1" parent="XZGx1vhHaTcRCYBM8X0p-13">
          <mxGeometry x="10" y="10" width="20" height="20" as="geometry" />
        </mxCell>
        <mxCell id="XZGx1vhHaTcRCYBM8X0p-16" value="+ likeadas / + recientes" style="rounded=0;whiteSpace=wrap;html=1;fillColor=#fad9d5;strokeColor=#ae4132;" vertex="1" parent="1">
          <mxGeometry x="220" y="180" width="310" height="40" as="geometry" />
        </mxCell>
        <mxCell id="XZGx1vhHaTcRCYBM8X0p-18" value="" style="group" vertex="1" connectable="0" parent="1">
          <mxGeometry x="220" y="540" width="310" height="270" as="geometry" />
        </mxCell>
        <mxCell id="XZGx1vhHaTcRCYBM8X0p-19" value="photo 2" style="rounded=0;whiteSpace=wrap;html=1;fillColor=#cce5ff;strokeColor=#36393d;" vertex="1" parent="XZGx1vhHaTcRCYBM8X0p-18">
          <mxGeometry width="310" height="270" as="geometry" />
        </mxCell>
        <mxCell id="XZGx1vhHaTcRCYBM8X0p-20" value="" style="group" vertex="1" connectable="0" parent="XZGx1vhHaTcRCYBM8X0p-18">
          <mxGeometry y="230" width="310" height="40" as="geometry" />
        </mxCell>
        <mxCell id="XZGx1vhHaTcRCYBM8X0p-21" value="@author" style="rounded=0;whiteSpace=wrap;html=1;" vertex="1" parent="XZGx1vhHaTcRCYBM8X0p-20">
          <mxGeometry x="170" width="140" height="40" as="geometry" />
        </mxCell>
        <mxCell id="XZGx1vhHaTcRCYBM8X0p-22" value="" style="group" vertex="1" connectable="0" parent="XZGx1vhHaTcRCYBM8X0p-20">
          <mxGeometry width="170" height="40" as="geometry" />
        </mxCell>
        <mxCell id="XZGx1vhHaTcRCYBM8X0p-23" value="750 likes" style="rounded=0;whiteSpace=wrap;html=1;" vertex="1" parent="XZGx1vhHaTcRCYBM8X0p-22">
          <mxGeometry width="170" height="40" as="geometry" />
        </mxCell>
        <mxCell id="XZGx1vhHaTcRCYBM8X0p-24" value="" style="verticalLabelPosition=bottom;verticalAlign=top;html=1;shape=mxgraph.basic.star;fillColor=#76608a;fontColor=#ffffff;strokeColor=#432D57;" vertex="1" parent="XZGx1vhHaTcRCYBM8X0p-22">
          <mxGeometry x="10" y="10" width="20" height="20" as="geometry" />
        </mxCell>
        <mxCell id="XZGx1vhHaTcRCYBM8X0p-26" value="" style="rounded=0;whiteSpace=wrap;html=1;" vertex="1" parent="1">
          <mxGeometry x="90" y="980" width="570" height="830" as="geometry" />
        </mxCell>
        <mxCell id="XZGx1vhHaTcRCYBM8X0p-27" value="" style="rounded=0;whiteSpace=wrap;html=1;fillColor=#a0522d;fontColor=#ffffff;strokeColor=#6D1F00;" vertex="1" parent="1">
          <mxGeometry x="120" y="1070" width="510" height="710" as="geometry" />
        </mxCell>
        <mxCell id="XZGx1vhHaTcRCYBM8X0p-28" value="Nav bar" style="rounded=0;whiteSpace=wrap;html=1;fillColor=#76608a;fontColor=#ffffff;strokeColor=#432D57;" vertex="1" parent="1">
          <mxGeometry x="120" y="1000" width="510" height="60" as="geometry" />
        </mxCell>
        <mxCell id="XZGx1vhHaTcRCYBM8X0p-29" value="" style="group" vertex="1" connectable="0" parent="1">
          <mxGeometry x="220" y="1170" width="310" height="270" as="geometry" />
        </mxCell>
        <mxCell id="XZGx1vhHaTcRCYBM8X0p-30" value="photo 1" style="rounded=0;whiteSpace=wrap;html=1;fillColor=#cce5ff;strokeColor=#36393d;" vertex="1" parent="XZGx1vhHaTcRCYBM8X0p-29">
          <mxGeometry width="310" height="270" as="geometry" />
        </mxCell>
        <mxCell id="XZGx1vhHaTcRCYBM8X0p-31" value="" style="group" vertex="1" connectable="0" parent="XZGx1vhHaTcRCYBM8X0p-29">
          <mxGeometry y="230" width="310" height="40" as="geometry" />
        </mxCell>
        <mxCell id="XZGx1vhHaTcRCYBM8X0p-32" value="@author" style="rounded=0;whiteSpace=wrap;html=1;" vertex="1" parent="XZGx1vhHaTcRCYBM8X0p-31">
          <mxGeometry x="170" width="140" height="40" as="geometry" />
        </mxCell>
        <mxCell id="XZGx1vhHaTcRCYBM8X0p-33" value="" style="group" vertex="1" connectable="0" parent="XZGx1vhHaTcRCYBM8X0p-31">
          <mxGeometry width="170" height="40" as="geometry" />
        </mxCell>
        <mxCell id="XZGx1vhHaTcRCYBM8X0p-34" value="1,250 likes" style="rounded=0;whiteSpace=wrap;html=1;" vertex="1" parent="XZGx1vhHaTcRCYBM8X0p-33">
          <mxGeometry width="170" height="40" as="geometry" />
        </mxCell>
        <mxCell id="XZGx1vhHaTcRCYBM8X0p-35" value="" style="verticalLabelPosition=bottom;verticalAlign=top;html=1;shape=mxgraph.basic.star;fillColor=#76608a;fontColor=#ffffff;strokeColor=#432D57;" vertex="1" parent="XZGx1vhHaTcRCYBM8X0p-33">
          <mxGeometry x="10" y="10" width="20" height="20" as="geometry" />
        </mxCell>
        <mxCell id="XZGx1vhHaTcRCYBM8X0p-36" value="+ likeadas / + recientes / mis likeadas" style="rounded=0;whiteSpace=wrap;html=1;fillColor=#fad9d5;strokeColor=#ae4132;" vertex="1" parent="1">
          <mxGeometry x="220" y="1100" width="310" height="40" as="geometry" />
        </mxCell>
        <mxCell id="XZGx1vhHaTcRCYBM8X0p-37" value="" style="group" vertex="1" connectable="0" parent="1">
          <mxGeometry x="220" y="1460" width="310" height="270" as="geometry" />
        </mxCell>
        <mxCell id="XZGx1vhHaTcRCYBM8X0p-38" value="photo 2" style="rounded=0;whiteSpace=wrap;html=1;fillColor=#cce5ff;strokeColor=#36393d;" vertex="1" parent="XZGx1vhHaTcRCYBM8X0p-37">
          <mxGeometry width="310" height="270" as="geometry" />
        </mxCell>
        <mxCell id="XZGx1vhHaTcRCYBM8X0p-39" value="" style="group" vertex="1" connectable="0" parent="XZGx1vhHaTcRCYBM8X0p-37">
          <mxGeometry y="230" width="310" height="40" as="geometry" />
        </mxCell>
        <mxCell id="XZGx1vhHaTcRCYBM8X0p-40" value="@author" style="rounded=0;whiteSpace=wrap;html=1;" vertex="1" parent="XZGx1vhHaTcRCYBM8X0p-39">
          <mxGeometry x="170" width="140" height="40" as="geometry" />
        </mxCell>
        <mxCell id="XZGx1vhHaTcRCYBM8X0p-41" value="" style="group" vertex="1" connectable="0" parent="XZGx1vhHaTcRCYBM8X0p-39">
          <mxGeometry width="170" height="40" as="geometry" />
        </mxCell>
        <mxCell id="XZGx1vhHaTcRCYBM8X0p-42" value="750 likes" style="rounded=0;whiteSpace=wrap;html=1;" vertex="1" parent="XZGx1vhHaTcRCYBM8X0p-41">
          <mxGeometry width="170" height="40" as="geometry" />
        </mxCell>
        <mxCell id="XZGx1vhHaTcRCYBM8X0p-43" value="" style="verticalLabelPosition=bottom;verticalAlign=top;html=1;shape=mxgraph.basic.star;fillColor=#76608a;fontColor=#ffffff;strokeColor=#432D57;" vertex="1" parent="XZGx1vhHaTcRCYBM8X0p-41">
          <mxGeometry x="10" y="10" width="20" height="20" as="geometry" />
        </mxCell>
        <mxCell id="XZGx1vhHaTcRCYBM8X0p-44" value="User profile" style="text;html=1;align=center;verticalAlign=middle;whiteSpace=wrap;rounded=0;fontSize=20;" vertex="1" parent="1">
          <mxGeometry x="90" y="930" width="570" height="40" as="geometry" />
        </mxCell>
        <mxCell id="XZGx1vhHaTcRCYBM8X0p-45" value="" style="rounded=0;whiteSpace=wrap;html=1;" vertex="1" parent="1">
          <mxGeometry x="750" y="60" width="570" height="620" as="geometry" />
        </mxCell>
        <mxCell id="XZGx1vhHaTcRCYBM8X0p-46" value="New photo" style="text;html=1;align=center;verticalAlign=middle;whiteSpace=wrap;rounded=0;fontSize=20;" vertex="1" parent="1">
          <mxGeometry x="750" y="10" width="570" height="40" as="geometry" />
        </mxCell>
        <mxCell id="XZGx1vhHaTcRCYBM8X0p-47" value="" style="rounded=0;whiteSpace=wrap;html=1;fillColor=#a0522d;fontColor=#ffffff;strokeColor=#6D1F00;" vertex="1" parent="1">
          <mxGeometry x="780" y="150" width="510" height="510" as="geometry" />
        </mxCell>
        <mxCell id="XZGx1vhHaTcRCYBM8X0p-48" value="Nav bar" style="rounded=0;whiteSpace=wrap;html=1;fillColor=#76608a;fontColor=#ffffff;strokeColor=#432D57;" vertex="1" parent="1">
          <mxGeometry x="780" y="80" width="510" height="60" as="geometry" />
        </mxCell>
        <mxCell id="XZGx1vhHaTcRCYBM8X0p-49" value="" style="group;fontSize=80;" vertex="1" connectable="0" parent="1">
          <mxGeometry x="880" y="170" width="310" height="270" as="geometry" />
        </mxCell>
        <mxCell id="XZGx1vhHaTcRCYBM8X0p-50" value="&lt;font style=&quot;font-size: 80px;&quot;&gt;+&lt;/font&gt;" style="rounded=0;whiteSpace=wrap;html=1;fillColor=#cce5ff;strokeColor=#36393d;" vertex="1" parent="XZGx1vhHaTcRCYBM8X0p-49">
          <mxGeometry width="310" height="270" as="geometry" />
        </mxCell>
        <mxCell id="XZGx1vhHaTcRCYBM8X0p-64" value="&lt;font style=&quot;font-size: 20px;&quot;&gt;caption&lt;/font&gt;" style="rounded=0;whiteSpace=wrap;html=1;fillColor=#d0cee2;strokeColor=#56517e;" vertex="1" parent="1">
          <mxGeometry x="880" y="460" width="310" height="120" as="geometry" />
        </mxCell>
        <mxCell id="XZGx1vhHaTcRCYBM8X0p-72" value="" style="rounded=0;whiteSpace=wrap;html=1;" vertex="1" parent="1">
          <mxGeometry x="750" y="780" width="570" height="880" as="geometry" />
        </mxCell>
        <mxCell id="XZGx1vhHaTcRCYBM8X0p-73" value="Photo view" style="text;html=1;align=center;verticalAlign=middle;whiteSpace=wrap;rounded=0;fontSize=20;" vertex="1" parent="1">
          <mxGeometry x="750" y="730" width="570" height="40" as="geometry" />
        </mxCell>
        <mxCell id="XZGx1vhHaTcRCYBM8X0p-74" value="" style="rounded=0;whiteSpace=wrap;html=1;fillColor=#a0522d;fontColor=#ffffff;strokeColor=#6D1F00;" vertex="1" parent="1">
          <mxGeometry x="780" y="870" width="510" height="750" as="geometry" />
        </mxCell>
        <mxCell id="XZGx1vhHaTcRCYBM8X0p-75" value="Nav bar" style="rounded=0;whiteSpace=wrap;html=1;fillColor=#76608a;fontColor=#ffffff;strokeColor=#432D57;" vertex="1" parent="1">
          <mxGeometry x="780" y="800" width="510" height="60" as="geometry" />
        </mxCell>
        <mxCell id="XZGx1vhHaTcRCYBM8X0p-76" value="" style="group;fontSize=80;" vertex="1" connectable="0" parent="1">
          <mxGeometry x="890" y="890" width="310" height="270" as="geometry" />
        </mxCell>
        <mxCell id="XZGx1vhHaTcRCYBM8X0p-77" value="&lt;font style=&quot;font-size: 20px;&quot;&gt;photo&lt;/font&gt;" style="rounded=0;whiteSpace=wrap;html=1;fillColor=#cce5ff;strokeColor=#36393d;" vertex="1" parent="XZGx1vhHaTcRCYBM8X0p-76">
          <mxGeometry width="310" height="270" as="geometry" />
        </mxCell>
        <mxCell id="XZGx1vhHaTcRCYBM8X0p-78" value="&lt;font style=&quot;font-size: 20px;&quot;&gt;caption&lt;/font&gt;" style="rounded=0;whiteSpace=wrap;html=1;fillColor=#d0cee2;strokeColor=#56517e;" vertex="1" parent="1">
          <mxGeometry x="890" y="1180" width="310" height="120" as="geometry" />
        </mxCell>
        <mxCell id="XZGx1vhHaTcRCYBM8X0p-79" value="CREAR" style="rounded=1;whiteSpace=wrap;html=1;fillColor=#d5e8d4;strokeColor=#82b366;" vertex="1" parent="1">
          <mxGeometry x="960" y="600" width="150" height="40" as="geometry" />
        </mxCell>
        <mxCell id="XZGx1vhHaTcRCYBM8X0p-80" value="" style="group;fontSize=80;" vertex="1" connectable="0" parent="1">
          <mxGeometry x="790" y="1400" width="150" height="150" as="geometry" />
        </mxCell>
        <mxCell id="XZGx1vhHaTcRCYBM8X0p-81" value="&lt;font style=&quot;font-size: 20px;&quot;&gt;photo&lt;/font&gt;" style="rounded=0;whiteSpace=wrap;html=1;fillColor=#cce5ff;strokeColor=#36393d;" vertex="1" parent="XZGx1vhHaTcRCYBM8X0p-80">
          <mxGeometry width="150" height="150" as="geometry" />
        </mxCell>
        <mxCell id="XZGx1vhHaTcRCYBM8X0p-82" value="" style="group;fontSize=80;" vertex="1" connectable="0" parent="1">
          <mxGeometry x="960" y="1400" width="150" height="150" as="geometry" />
        </mxCell>
        <mxCell id="XZGx1vhHaTcRCYBM8X0p-83" value="&lt;font style=&quot;font-size: 20px;&quot;&gt;photo&lt;/font&gt;" style="rounded=0;whiteSpace=wrap;html=1;fillColor=#cce5ff;strokeColor=#36393d;" vertex="1" parent="XZGx1vhHaTcRCYBM8X0p-82">
          <mxGeometry width="150" height="150" as="geometry" />
        </mxCell>
        <mxCell id="XZGx1vhHaTcRCYBM8X0p-84" value="" style="group;fontSize=80;" vertex="1" connectable="0" parent="1">
          <mxGeometry x="1130" y="1400" width="150" height="150" as="geometry" />
        </mxCell>
        <mxCell id="XZGx1vhHaTcRCYBM8X0p-85" value="&lt;font style=&quot;font-size: 20px;&quot;&gt;photo&lt;/font&gt;" style="rounded=0;whiteSpace=wrap;html=1;fillColor=#cce5ff;strokeColor=#36393d;" vertex="1" parent="XZGx1vhHaTcRCYBM8X0p-84">
          <mxGeometry width="150" height="150" as="geometry" />
        </mxCell>
        <mxCell id="XZGx1vhHaTcRCYBM8X0p-86" value="Relacionadas" style="text;html=1;align=center;verticalAlign=middle;whiteSpace=wrap;rounded=0;fontSize=40;" vertex="1" parent="1">
          <mxGeometry x="800" y="1330" width="255" height="70" as="geometry" />
        </mxCell>
        <mxCell id="XZGx1vhHaTcRCYBM8X0p-92" value="" style="rounded=0;whiteSpace=wrap;html=1;" vertex="1" parent="1">
          <mxGeometry x="1400" y="60" width="570" height="620" as="geometry" />
        </mxCell>
        <mxCell id="XZGx1vhHaTcRCYBM8X0p-93" value="Register / Login" style="text;html=1;align=center;verticalAlign=middle;whiteSpace=wrap;rounded=0;fontSize=20;" vertex="1" parent="1">
          <mxGeometry x="1400" y="10" width="570" height="40" as="geometry" />
        </mxCell>
        <mxCell id="XZGx1vhHaTcRCYBM8X0p-94" value="" style="rounded=0;whiteSpace=wrap;html=1;fillColor=#a0522d;fontColor=#ffffff;strokeColor=#6D1F00;" vertex="1" parent="1">
          <mxGeometry x="1430" y="150" width="510" height="510" as="geometry" />
        </mxCell>
        <mxCell id="XZGx1vhHaTcRCYBM8X0p-95" value="Nav bar" style="rounded=0;whiteSpace=wrap;html=1;fillColor=#76608a;fontColor=#ffffff;strokeColor=#432D57;" vertex="1" parent="1">
          <mxGeometry x="1430" y="80" width="510" height="60" as="geometry" />
        </mxCell>
        <mxCell id="XZGx1vhHaTcRCYBM8X0p-98" value="&lt;font style=&quot;font-size: 20px;&quot;&gt;username&lt;/font&gt;" style="rounded=0;whiteSpace=wrap;html=1;fillColor=#d0cee2;strokeColor=#56517e;" vertex="1" parent="1">
          <mxGeometry x="1530" y="200" width="310" height="40" as="geometry" />
        </mxCell>
        <mxCell id="XZGx1vhHaTcRCYBM8X0p-99" value="REGISTRAR" style="rounded=1;whiteSpace=wrap;html=1;fillColor=#d5e8d4;strokeColor=#82b366;" vertex="1" parent="1">
          <mxGeometry x="1610" y="365" width="150" height="40" as="geometry" />
        </mxCell>
        <mxCell id="XZGx1vhHaTcRCYBM8X0p-100" value="&lt;font style=&quot;font-size: 20px;&quot;&gt;password&lt;/font&gt;" style="rounded=0;whiteSpace=wrap;html=1;fillColor=#d0cee2;strokeColor=#56517e;" vertex="1" parent="1">
          <mxGeometry x="1530" y="260" width="310" height="40" as="geometry" />
        </mxCell>
      </root>
    </mxGraphModel>
  </diagram>
</mxfile>
